<?xml version="1.0" encoding="utf-8"?>
<!-- Generator: Adobe Illustrator 24.2.3, SVG Export Plug-In . SVG Version: 6.00 Build 0)  -->
<svg version="1.1" id="Layer_1" xmlns="http://www.w3.org/2000/svg" xmlns:xlink="http://www.w3.org/1999/xlink" x="0px" y="0px"
	 viewBox="0 0 180.3 56" style="enable-background:new 0 0 180.3 56;" xml:space="preserve">
<style type="text/css">
	.st0{clip-path:url(#SVGID_2_);}
	.st1{fill-rule:evenodd;clip-rule:evenodd;fill:#FFFFFF;}
	.st2{fill-rule:evenodd;clip-rule:evenodd;fill:#002876;}
	.st3{fill-rule:evenodd;clip-rule:evenodd;fill:#DD1A1D;}
	.st4{fill:#1C3F95;}
	.st5{fill:#DD1A1D;}
</style>
<g id="Group_273" transform="translate(-253.827 -253.167)">
	<g id="Group_275" transform="translate(255.827 255.167)">
		<g>
			<defs>
				<path id="SVGID_1_" d="M0,0h21.9c9.5,0,15.3,5.3,15.3,12.4c0.1,5.9-4,11-9.8,12.3v0.1c6.8,1.7,10.7,6,10.7,12.8
					c0,8.8-6.7,14.3-17,14.3H0L0,0z"/>
			</defs>
			<clipPath id="SVGID_2_">
				<use xlink:href="#SVGID_1_"  style="overflow:visible;"/>
			</clipPath>
			<g id="Group_274" class="st0">
				<g id="Group_273-2" transform="translate(-58.472 -5.583)">
					<path id="Path_398" class="st1" d="M0,62.9h125.7V0H0V62.9L0,62.9z"/>
					<path id="Path_399" class="st2" d="M0,21L0,21V7L27.8,21L0,21z"/>
					<path id="Path_400" class="st2" d="M14.1,0h38.3v19.2L14.1,0z"/>
					<path id="Path_401" class="st2" d="M73.3,0h38.3L73.3,19.2V0z"/>
					<path id="Path_402" class="st2" d="M97.9,21L97.9,21L125.7,7V21H97.9z"/>
					<path id="Path_403" class="st2" d="M97.9,41.9h27.8v13.9L97.9,41.9z"/>
					<path id="Path_404" class="st2" d="M73.3,43.7L73.3,43.7l38.3,19.2H73.3V43.7z"/>
					<path id="Path_405" class="st2" d="M52.4,43.7L52.4,43.7v19.2H14.1L52.4,43.7z"/>
					<path id="Path_406" class="st2" d="M0,41.9h27.8L0,55.8V41.9z"/>
					<path id="Path_407" class="st3" d="M0,0L0,0l41.9,21h-9.4L0,4.7V0L0,0z"/>
					<path id="Path_408" class="st3" d="M74.4,21L74.4,21l41.9-21h9.4L83.8,21H74.4z"/>
					<path id="Path_409" class="st3" d="M83.8,41.9h9.4l32.5,16.3v4.7L83.8,41.9L83.8,41.9z"/>
					<path id="Path_410" class="st3" d="M0,62.8L0,62.8l41.9-21h9.4l-41.9,21H0z"/>
					<path id="Path_411" class="st3" d="M0,25.1h56.6V0h12.6v25.1h56.6v12.6H69.1v25.1H56.6V37.7H0V25.1z"/>
				</g>
			</g>
		</g>
	</g>
	<g id="Group_276" transform="translate(311.833 257.228)">
		<path id="Path_413" class="st4" d="M-5,0.5C-3.1,0.1-1.2,0,0.7,0c2.6,0,5.1,0.4,6.8,1.9c1.4,1.3,2.1,3.1,2,4.9
			c0,2.7-1.7,5.2-4.3,6.1v0.1c3.1,0.7,5.3,3.6,5.2,6.8c0.1,2-0.7,4-2.1,5.5C6.7,27.1,3.9,28-0.2,28c-1.6,0-3.2-0.1-4.8-0.3L-5,0.5z
			 M-0.5,11.7h1.4C3.2,11.7,5,9.8,5,7.5c0,0,0-0.1,0-0.1c0-2.3-1.1-4-3.9-4c-0.5,0-1.1,0-1.6,0.2V11.7z M-0.5,24.5
			c0.5,0.1,1,0.1,1.4,0.1c2.8,0,4.8-1.6,4.8-4.8c0.1-2.6-1.9-4.8-4.5-4.9c-0.2,0-0.3,0-0.5,0h-1.3L-0.5,24.5z"/>
		<path id="Path_414" class="st4" d="M13.9,12.9c0-1.9-0.1-4-0.2-5.8h4l0.3,3.1H18c0.8-2.1,2.5-3.5,4.2-3.5c0.3,0,0.6,0,0.9,0.1v4.6
			c-0.3-0.1-0.6-0.1-0.9-0.1c-1.6,0-3.2,1.3-3.7,3.6c-0.1,0.7-0.2,1.3-0.2,2v10.9h-4.6V12.9z"/>
		<path id="Path_415" class="st4" d="M30.2,2.6c0.1,1.3-0.9,2.4-2.2,2.5c-0.1,0-0.2,0-0.3,0c-1.3,0-2.3-1-2.3-2.3c0-0.1,0-0.1,0-0.2
			c-0.1-1.3,1-2.5,2.3-2.5s2.5,1,2.5,2.3C30.2,2.4,30.2,2.5,30.2,2.6z M25.5,27.8v-20H30v20L25.5,27.8z"/>
		<path id="Path_416" class="st4" d="M39.7,2.9v5h4v3.2h-4v10.3c0,2.5,1,3.1,2.1,3.1c0.5,0,0.9,0,1.4-0.1l0.1,3.4
			c-1,0.2-2,0.4-3,0.3c-1.3,0.1-2.6-0.4-3.7-1.2c-1-1-1.5-2.5-1.5-5.4V11.1h-2.5V7.9h2.5V4.5L39.7,2.9z"/>
		<path id="Path_417" class="st4" d="M59,23.1c0,1.6,0.1,3.2,0.3,4.7h-4.1l-0.3-2.1h-0.1c-0.9,1.5-2.6,2.5-4.4,2.5
			c-3,0-5.2-2.5-5.2-6.1c0-5.3,4.5-7.6,9.2-7.6v-0.6c0-2.1-0.9-3.7-3.1-3.7c-1.4,0-2.7,0.4-3.9,1.1l-0.9-3.1c1.7-1,3.7-1.5,5.7-1.5
			c5.4,0,6.7,3.7,6.7,8.1L59,23.1z M54.5,17.4c-1.8,0-5,0.5-5,4.1c0,2.3,1.2,3.2,2.3,3.2c1.3-0.1,2.4-1.1,2.6-2.4
			c0.1-0.3,0.1-0.7,0.1-1.1L54.5,17.4z"/>
		<path id="Path_418" class="st4" d="M63.2,12.9c0-2.3-0.1-4-0.2-5.8h4l0.2,2.4h0.1c1-1.7,2.9-2.8,4.9-2.8c3.5,0,5.3,2.7,5.3,7.5
			v13.6H73V14.7c0-2-0.4-4.1-2.4-4.1c-1.1,0-2.1,0.9-2.6,2.6c-0.2,0.6-0.2,1.2-0.2,1.9v12.8h-4.6L63.2,12.9z"/>
		<path id="Path_419" class="st4" d="M81.7,12.9c0-2.3-0.1-4-0.2-5.8h4l0.2,2.4h0.1c1-1.7,2.9-2.8,4.9-2.8c3.5,0,5.3,2.7,5.3,7.5
			v13.6h-4.6V14.7c0-2-0.4-4.1-2.4-4.1c-1.1,0-2.1,0.9-2.6,2.6c-0.2,0.6-0.2,1.2-0.2,1.9v12.8h-4.6V12.9z"/>
		<path id="Path_420" class="st4" d="M104.9,2.6c0.1,1.3-0.9,2.4-2.2,2.5c-0.1,0-0.2,0-0.3,0c-1.3,0-2.3-1-2.3-2.3
			c0-0.1,0-0.1,0-0.2c-0.1-1.3,1-2.5,2.3-2.5c1.3-0.1,2.5,1,2.5,2.3C104.9,2.4,104.9,2.5,104.9,2.6z M100.2,27.8v-20h4.6v20
			L100.2,27.8z"/>
		<path id="Path_421" class="st4" d="M121.5,23.1c0,1.6,0.1,3.2,0.3,4.7h-4.1l-0.3-2.1h-0.1c-0.9,1.5-2.6,2.5-4.4,2.5
			c-3,0-5.2-2.5-5.2-6.1c0-5.3,4.5-7.6,9.2-7.6v-0.6c0-2.1-0.9-3.7-3.1-3.7c-1.4,0-2.7,0.4-3.9,1.1l-0.9-3.1c1.7-1,3.7-1.5,5.7-1.5
			c5.4,0,6.7,3.7,6.7,8.1L121.5,23.1z M117.1,17.4c-1.8,0-5,0.5-5,4.1c0,2.3,1.2,3.2,2.3,3.2c1.3-0.1,2.4-1.1,2.6-2.4
			c0.1-0.3,0.1-0.7,0.1-1.1L117.1,17.4z"/>
	</g>
	<g id="Group_277" transform="translate(311.205 291.148)">
		<path id="Path_422" class="st5" d="M-4.6,12.2c0.8,0.4,1.6,0.6,2.5,0.6c1.6,0,2.4-0.8,2.4-2c0-1.1-0.8-1.8-2.1-2.6
			c-1.8-1-3-2.4-3-4c0-2.2,1.7-4,4.7-4c0.8,0,1.6,0.2,2.4,0.5L1.8,2.7c-0.6-0.3-1.3-0.5-2-0.5c-1.4,0-2.1,0.9-2.1,1.7
			c0,1.1,0.6,1.6,2.3,2.5C2,7.7,2.8,9,2.8,10.5c0,2.5-2,4.2-4.9,4.2c-1,0-2-0.2-2.9-0.6L-4.6,12.2z"/>
		<path id="Path_423" class="st5" d="M7.5,2v2.5h2.2v1.6H7.5v5.2c0,1.2,0.5,1.6,1.2,1.6c0.3,0,0.5,0,0.8-0.1l0,1.7
			c-0.5,0.1-1.1,0.2-1.7,0.2c-0.7,0-1.5-0.2-2-0.6C5.3,13.6,5,12.8,5,11.4V6.1H3.6V4.5H5V2.8L7.5,2z"/>
		<path id="Path_424" class="st5" d="M19,11.2c0,1.2,0,2.4,0.1,3.3H17l-0.2-1.2h0c-0.6,0.9-1.5,1.4-2.6,1.4c-2.1,0-2.9-1.6-2.9-4.6
			V3h2.5v6.8c0,1.6,0.3,2.8,1.3,2.8c0.6-0.1,1.2-0.5,1.3-1.1c0.1-0.3,0.2-0.7,0.1-1V3H19L19,11.2z"/>
		<path id="Path_425" class="st5" d="M29.1,0v11.8c0,0.8,0,2,0.1,2.8h-2.2l-0.1-1.2h-0.1c-0.5,0.9-1.4,1.4-2.4,1.4
			c-2.2,0-3.5-2.2-3.5-5.3c0-3.6,1.8-5.3,3.6-5.3c0.8-0.1,1.6,0.4,2,1.1h0V0L29.1,0z M26.6,8.2c0-0.2,0-0.4,0-0.6
			c0-0.8-0.6-1.4-1.4-1.5c-1.3,0-1.7,1.6-1.7,3.4c0,2.1,0.6,3.4,1.7,3.4c0.5,0,1.1-0.2,1.4-1.3c0.1-0.2,0.1-0.4,0.1-0.7L26.6,8.2z"
			/>
		<path id="Path_426" class="st5" d="M33.5,9.5c0,2.6,1.2,3.3,2.6,3.3c0.7,0,1.4-0.1,2.1-0.4l0.4,1.8c-0.9,0.4-1.9,0.6-2.9,0.5
			c-3,0-4.6-2.2-4.6-5.7c0-3.8,1.8-6.1,4.3-6.1c2.4,0,3.6,2.2,3.6,5.3c0,0.7,0,1-0.1,1.3L33.5,9.5z M36.6,7.7c0-1.8-0.6-2.9-1.5-2.9
			c-1.1,0-1.6,1.6-1.6,2.9H36.6z"/>
		<path id="Path_427" class="st5" d="M40.8,6.3c0-1.3,0-2.2-0.1-3.2h2.2L43,4.4h0c0.6-1,1.6-1.6,2.7-1.5c1.9,0,3,1.5,3,4.2v7.5h-2.5
			V7.3C46.2,6.1,46,5,44.9,5c-0.6,0-1.2,0.5-1.4,1.4c-0.1,0.3-0.1,0.7-0.1,1v7.1h-2.5L40.8,6.3z"/>
		<path id="Path_428" class="st5" d="M54,2v2.5h2.2v1.6H54v5.2c0,1.2,0.5,1.6,1.2,1.6c0.3,0,0.5,0,0.8-0.1l0,1.7
			c-0.5,0.1-1.1,0.2-1.7,0.2c-0.7,0-1.5-0.2-2-0.6c-0.6-0.5-0.9-1.2-0.9-2.7V6.1h-1.4V4.5h1.4V2.8L54,2z"/>
		<path id="Path_429" class="st5" d="M61.3,12.2c0.8,0.4,1.6,0.6,2.5,0.6c1.6,0,2.4-0.8,2.4-2c0-1.1-0.8-1.8-2.1-2.6
			c-1.8-1-3-2.4-3-4c0-2.2,1.7-4,4.7-4c0.8,0,1.6,0.2,2.4,0.5l-0.5,1.9c-0.6-0.3-1.3-0.5-2-0.5c-1.4,0-2.1,0.9-2.1,1.7
			c0,1.1,0.6,1.6,2.3,2.5c2,1.2,2.8,2.5,2.8,4.1c0,2.5-2,4.2-4.9,4.2c-1,0-2-0.2-2.9-0.6L61.3,12.2z"/>
		<path id="Path_430" class="st5" d="M72.6,9.5c0,2.6,1.2,3.3,2.6,3.3c0.7,0,1.4-0.1,2.1-0.4l0.4,1.8c-0.9,0.4-1.9,0.6-2.9,0.5
			c-3,0-4.6-2.2-4.6-5.7c0-3.8,1.8-6.1,4.3-6.1c2.4,0,3.6,2.2,3.6,5.3c0,0.7,0,1-0.1,1.3L72.6,9.5z M75.8,7.7c0-1.8-0.6-2.9-1.5-2.9
			c-1.1,0-1.6,1.6-1.6,2.9H75.8z"/>
		<path id="Path_431" class="st5" d="M79.9,6.3c0-1.1-0.1-2.2-0.1-3.2h2.2l0.1,1.8h0.1c0.3-1.1,1.2-1.8,2.3-1.9c0.2,0,0.3,0,0.5,0
			v2.5c-0.2,0-0.3-0.1-0.5,0c-1.1,0.1-1.9,0.9-2,2c-0.1,0.4-0.1,0.7-0.1,1.1v6.1h-2.5L79.9,6.3z"/>
		<path id="Path_432" class="st5" d="M88.7,3l1.1,5.8c0.2,0.9,0.3,1.9,0.5,3h0c0.1-1.1,0.3-2,0.5-3L91.9,3h2.5l-3.1,11.5h-2.3L86,3
			H88.7z"/>
		<path id="Path_433" class="st5" d="M98.4,1.7c0,0.7-0.5,1.3-1.2,1.3c-0.1,0-0.1,0-0.2,0c-0.7,0-1.3-0.5-1.3-1.2c0,0,0-0.1,0-0.1
			c0-0.7,0.6-1.4,1.4-1.4C97.8,0.3,98.4,0.9,98.4,1.7z M95.8,14.6V4.3h2.5v10.2H95.8z"/>
		<path id="Path_434" class="st5" d="M106.7,14.3c-0.6,0.3-1.3,0.4-1.9,0.4c-2.7,0-4.6-2-4.6-5.8c0-3.4,1.9-6,5-6
			c0.6,0,1.1,0.1,1.7,0.3l-0.4,2c-0.4-0.2-0.8-0.3-1.2-0.3c-1.6,0-2.5,1.8-2.5,3.9c0,2.4,0.9,3.8,2.5,3.8c0.4,0,0.8-0.1,1.2-0.3
			L106.7,14.3z"/>
		<path id="Path_435" class="st5" d="M110,9.5c0,2.6,1.2,3.3,2.6,3.3c0.7,0,1.4-0.1,2.1-0.4l0.4,1.8c-0.9,0.4-1.9,0.6-2.9,0.5
			c-3,0-4.6-2.2-4.6-5.7c0-3.8,1.8-6.1,4.3-6.1c2.4,0,3.6,2.2,3.6,5.3c0,0.7,0,1-0.1,1.3L110,9.5z M113.1,7.7c0-1.8-0.6-2.9-1.5-2.9
			c-1.1,0-1.6,1.6-1.6,2.9H113.1z"/>
		<path id="Path_436" class="st5" d="M117.1,12.2c0.6,0.4,1.3,0.6,2,0.6c0.7,0.1,1.3-0.4,1.4-1.1c0-0.1,0-0.2,0-0.2
			c0-0.7-0.3-1.2-1.4-1.9c-1.7-1-2.3-2.1-2.3-3.3c0-1.9,1.4-3.4,3.3-3.5c0.1,0,0.2,0,0.2,0c0.8,0,1.5,0.2,2.2,0.6L122,5.3
			c-0.5-0.3-1-0.5-1.6-0.5c-0.6-0.1-1.2,0.4-1.3,1.1c0,0,0,0.1,0,0.1c0,0.6,0.3,1,1.4,1.7c1.4,0.6,2.3,2,2.3,3.5
			c0,2.3-1.6,3.5-3.8,3.5c-0.9,0-1.7-0.2-2.5-0.7L117.1,12.2z"/>
	</g>
</g>
</svg>
