<svg xmlns="http://www.w3.org/2000/svg" width="19.524" height="19.524" viewBox="0 0 19.524 19.524">
  <path id="Icon_awesome-facebook-square" data-name="Icon awesome-facebook-square" d="M17.432,2.25H2.092A2.092,2.092,0,0,0,0,4.342v15.34a2.092,2.092,0,0,0,2.092,2.092H8.073V15.136H5.328V12.012H8.073V9.631c0-2.708,1.612-4.2,4.082-4.2a16.633,16.633,0,0,1,2.42.211V8.3H13.212a1.562,1.562,0,0,0-1.761,1.688v2.029h3l-.479,3.124H11.451v6.638h5.981a2.092,2.092,0,0,0,2.092-2.092V4.342A2.092,2.092,0,0,0,17.432,2.25Z" transform="translate(0 -2.25)" fill="#1c3f95"/>
</svg>
