<svg xmlns="http://www.w3.org/2000/svg" width="425.132" height="175" viewBox="0 0 425.132 175">
  <g id="Group_264" data-name="Group 264" transform="translate(-68.519 -50.949)">
    <g id="Group_257" data-name="Group 257" transform="translate(154.203 108.79)">
      <path id="Path_296" data-name="Path 296" d="M290.773,268.3a.755.755,0,0,1-.754-.754v-8.769a.755.755,0,0,1,.754-.754h1.135v-1.165a.754.754,0,0,1,.754-.754h3.514l-8.73-30.439-.684,2.395L281,248.158h3.694a.755.755,0,0,1,.754.754v18.474a.754.754,0,1,1-1.509,0V249.666h-3.941a.754.754,0,0,1-.725-.962l7.454-25.989a.754.754,0,0,1,.725-.546h0a.754.754,0,0,1,.725.547l1.334,4.654,8.395,29.275a.754.754,0,0,1-.725.963h-3.76v1.165a.754.754,0,0,1-.754.754h-1.135v8.015A.755.755,0,0,1,290.773,268.3Z" transform="translate(-237.749 -176.675)" fill="#d4dbde"/>
      <path id="Path_297" data-name="Path 297" d="M263.516,238.41a.752.752,0,0,1-.483-.175,4.134,4.134,0,0,0-5.147-.133.754.754,0,1,1-.905-1.207,5.637,5.637,0,0,1,7.02.181.755.755,0,0,1-.483,1.334Zm-22.674-2h-7.478a.754.754,0,0,1-.433-.136c-.882-.619-1.773-1.29-2.651-2a5.677,5.677,0,0,1-3.5-.131,5.685,5.685,0,0,1-3.713-5.319,5.5,5.5,0,0,1,.221-1.538A47.392,47.392,0,0,1,216.6,216.3a5.476,5.476,0,0,1-1.481-.519,5.659,5.659,0,0,1-1.505-8.921,47.8,47.8,0,0,1-.964-9.516c0-.887.036-1.768.075-2.5A5.66,5.66,0,0,1,214.28,185a47.257,47.257,0,0,1,4.7-11.305,5.567,5.567,0,0,1-.555-1.68,5.666,5.666,0,0,1,4.686-6.5,5.524,5.524,0,0,1,1.821,0,47.868,47.868,0,0,1,9.754-8.247,5.663,5.663,0,0,1,7.455-5.47,5.776,5.776,0,0,1,1.708.923,47.37,47.37,0,0,1,11.382-2.639,5.617,5.617,0,0,1,1.132-1.626,5.676,5.676,0,0,1,8.019,0,5.558,5.558,0,0,1,1.145,1.661,47.158,47.158,0,0,1,11.254,2.7,5.614,5.614,0,0,1,1.818-1.017,5.686,5.686,0,0,1,7.173,3.591,5.607,5.607,0,0,1,.275,2.106,47.811,47.811,0,0,1,9.457,8.081,5.554,5.554,0,0,1,2.135-.058,5.666,5.666,0,0,1,3.946,8.5,47.321,47.321,0,0,1,4.482,10.869,5.605,5.605,0,0,1,1.868.9h0a5.662,5.662,0,0,1-.264,9.317c.04.767.06,1.524.06,2.258a47.628,47.628,0,0,1-.9,9.226,5.537,5.537,0,0,1,1.217,1.574,5.68,5.68,0,0,1-2.423,7.637,5.583,5.583,0,0,1-1.867.586,47.141,47.141,0,0,1-4.9,8.594.754.754,0,0,1-1.366-.441v-7.03a.742.742,0,0,1-.066-.094.753.753,0,0,1-.022-.741c.41-.781.8-1.588,1.162-2.407a5.64,5.64,0,0,1,1.843-8.528,5.733,5.733,0,0,1,.961-.389,42.328,42.328,0,0,0,.762-7.988c0-.291-.006-.581-.012-.873-.008-.352-.022-.7-.038-1.056a5.555,5.555,0,0,1-.841-.5,5.682,5.682,0,0,1-1.221-7.924,5.378,5.378,0,0,1,.623-.713,41.792,41.792,0,0,0-3.935-9.516h-.006a5.448,5.448,0,0,1-.885-.072,5.673,5.673,0,0,1-4.684-6.5,5.348,5.348,0,0,1,.219-.867c-.633-.7-1.295-1.386-1.972-2.044a42.3,42.3,0,0,0-6.364-5.083,5.379,5.379,0,0,1-.824.352,5.675,5.675,0,0,1-7.167-3.587,5.568,5.568,0,0,1-.217-.908,41.956,41.956,0,0,0-9.779-2.36,5.211,5.211,0,0,1-.65.774,5.672,5.672,0,0,1-8.008,0,5.967,5.967,0,0,1-.658-.8,41.37,41.37,0,0,0-9.738,2.243,5.452,5.452,0,0,1-.238,1.055,5.673,5.673,0,0,1-8.192,3.129A42.4,42.4,0,0,0,231,167.277c-.6.59-1.177,1.179-1.706,1.756a5.426,5.426,0,0,1,.316,1.16,5.656,5.656,0,0,1-4.68,6.5,5.3,5.3,0,0,1-1.25.065,41.943,41.943,0,0,0-3.863,9.264,5.588,5.588,0,0,1,.911.971,5.647,5.647,0,0,1-2.431,8.595c-.013.3-.023.593-.03.893s-.012.578-.012.868a41.8,41.8,0,0,0,.748,7.889,5.664,5.664,0,0,1,3.761,8.125,5.536,5.536,0,0,1-.817,1.169,42.155,42.155,0,0,0,5.365,8.81,5.528,5.528,0,0,1,1.425-.186,5.674,5.674,0,0,1,5.667,5.667,5.533,5.533,0,0,1-.188,1.418,41.944,41.944,0,0,0,6.964,4.476.754.754,0,0,1,.412.672v.266A.754.754,0,0,1,240.842,236.406ZM233.6,234.9h4.771a43.553,43.553,0,0,1-5.5-3.808.755.755,0,0,1-.232-.847,4.117,4.117,0,0,0,.261-1.423,4.163,4.163,0,0,0-4.158-4.158,4,4,0,0,0-1.422.259.756.756,0,0,1-.853-.23,43.7,43.7,0,0,1-6.1-10.023.754.754,0,0,1,.179-.856,4.15,4.15,0,0,0-2.272-7.178.754.754,0,0,1-.64-.6,43.291,43.291,0,0,1-.878-8.692c0-.3.006-.6.013-.9.011-.486.03-.963.055-1.441a.755.755,0,0,1,.538-.684,4.145,4.145,0,0,0,1.173-7.39.755.755,0,0,1-.3-.815,43.472,43.472,0,0,1,4.392-10.54.752.752,0,0,1,.77-.367,3.922,3.922,0,0,0,1.293,0,4.148,4.148,0,0,0,3.439-4.771,4.083,4.083,0,0,0-.389-1.2.755.755,0,0,1,.112-.84c.64-.716,1.348-1.454,2.106-2.192a43.806,43.806,0,0,1,7.181-5.639.753.753,0,0,1,.833.02,4.144,4.144,0,0,0,6.533-3.245.756.756,0,0,1,.489-.676,42.911,42.911,0,0,1,11.034-2.543.753.753,0,0,1,.726.377,4.447,4.447,0,0,0,.686.907,4.163,4.163,0,0,0,5.875,0,3.9,3.9,0,0,0,.667-.875.759.759,0,0,1,.736-.38,43.415,43.415,0,0,1,11.055,2.665.754.754,0,0,1,.482.647,4.336,4.336,0,0,0,.2,1.034,4.158,4.158,0,0,0,5.262,2.628,4.034,4.034,0,0,0,.913-.439.755.755,0,0,1,.811,0,43.831,43.831,0,0,1,6.988,5.521c.815.791,1.608,1.621,2.357,2.468a.755.755,0,0,1,.127.8,4.076,4.076,0,0,0-.292.969,4.163,4.163,0,0,0,3.438,4.769,3.915,3.915,0,0,0,1,.037.752.752,0,0,1,.723.372,43.3,43.3,0,0,1,4.435,10.731.755.755,0,0,1-.249.773,4.154,4.154,0,0,0,.159,6.585,4.151,4.151,0,0,0,.953.512.756.756,0,0,1,.482.669c.025.518.049,1.037.062,1.562.006.3.012.605.012.905a43.82,43.82,0,0,1-.884,8.751.754.754,0,0,1-.582.587,4.308,4.308,0,0,0-1.074.38,4.137,4.137,0,0,0-1.106,6.535.754.754,0,0,1,.145.815c-.357.833-.744,1.658-1.152,2.461a.8.8,0,0,1,.011.133v5.064a45.832,45.832,0,0,0,3.555-6.712.756.756,0,0,1,.66-.457,4.092,4.092,0,0,0,1.719-.459,4.168,4.168,0,0,0,1.777-5.6,4.07,4.07,0,0,0-1.162-1.375.756.756,0,0,1-.282-.754,46.058,46.058,0,0,0,.962-9.364c0-.85-.028-1.734-.083-2.627a.754.754,0,0,1,.4-.713,4.154,4.154,0,0,0,.508-7.017h0a4.112,4.112,0,0,0-1.721-.735.754.754,0,0,1-.6-.552,45.776,45.776,0,0,0-4.679-11.346.757.757,0,0,1,.043-.822,4.077,4.077,0,0,0,.734-1.764A4.154,4.154,0,0,0,297.392,167a4.07,4.07,0,0,0-1.916.138.758.758,0,0,1-.792-.22,46.27,46.27,0,0,0-9.84-8.408.754.754,0,0,1-.341-.746,4.1,4.1,0,0,0-.164-1.9,4.145,4.145,0,0,0-6.864-1.644.754.754,0,0,1-.8.167,45.688,45.688,0,0,0-11.755-2.82.753.753,0,0,1-.634-.5,4.077,4.077,0,0,0-.969-1.546,4.155,4.155,0,0,0-6.852,1.525.753.753,0,0,1-.637.491,45.851,45.851,0,0,0-11.863,2.749.755.755,0,0,1-.779-.153,4.263,4.263,0,0,0-1.524-.908,4.155,4.155,0,0,0-5.444,4.366.755.755,0,0,1-.351.714,46.351,46.351,0,0,0-10.1,8.534.756.756,0,0,1-.747.231,4.029,4.029,0,0,0-1.665-.066,4.157,4.157,0,0,0-3.443,4.772,4.025,4.025,0,0,0,.575,1.52.756.756,0,0,1,.014.788,45.747,45.747,0,0,0-4.869,11.708.754.754,0,0,1-.54.541,4.152,4.152,0,0,0-1.183,7.507.754.754,0,0,1,.346.678c-.045.782-.1,1.81-.1,2.836a46.33,46.33,0,0,0,1.015,9.608.754.754,0,0,1-.229.714,4.154,4.154,0,0,0,.87,6.776,4.025,4.025,0,0,0,1.4.427.754.754,0,0,1,.607.454,45.915,45.915,0,0,0,6.893,11.317.752.752,0,0,1,.126.747,4.067,4.067,0,0,0-.266,1.43,4.152,4.152,0,0,0,1.145,2.861,4.1,4.1,0,0,0,1.578,1.042,4.151,4.151,0,0,0,2.872,0,.754.754,0,0,1,.744.123C231.8,233.572,232.708,234.263,233.6,234.9Z" transform="translate(-210.492 -146.788)" fill="#d4dbde"/>
      <path id="Path_298" data-name="Path 298" d="M292.643,243.535a.755.755,0,0,1-.754-.754v-79.44a.754.754,0,0,1,1.509,0v79.44A.754.754,0,0,1,292.643,243.535Z" transform="translate(-242.764 -153.052)" fill="#d4dbde"/>
      <path id="Path_299" data-name="Path 299" d="M306.985,229.35H221.635a.754.754,0,0,1,0-1.509h85.349a.754.754,0,0,1,0,1.509Z" transform="translate(-214.611 -178.924)" fill="#d4dbde"/>
      <path id="Path_300" data-name="Path 300" d="M274.159,211.053a.752.752,0,0,1-.532-.219l-2.078-2.072-28.968-28.884a.755.755,0,1,1,1.066-1.068l31.044,30.953a.755.755,0,0,1-.532,1.29Z" transform="translate(-223.127 -159.397)" fill="#d4dbde"/>
      <path id="Path_301" data-name="Path 301" d="M245.361,238.357a.754.754,0,0,1-.534-1.287l58.06-58.261a.754.754,0,1,1,1.068,1.066L245.9,238.136A.753.753,0,0,1,245.361,238.357Z" transform="translate(-224.018 -159.396)" fill="#d4dbde"/>
    </g>
    <path id="Path_302" data-name="Path 302" d="M747.911,295.795a.755.755,0,0,1-.754-.754V265.6h-1.1a.755.755,0,0,1-.754-.754v-1.132H734.181v1.132a.754.754,0,0,1-.754.754h-1.108v15.007a.754.754,0,0,1-.754.754h-2.746a.754.754,0,0,1-.754-.754V245.749H713.224v46.266a.754.754,0,0,1-1.509,0V244.994a.754.754,0,0,1,.754-.754h16.348a.755.755,0,0,1,.754.754v34.858h1.237V264.845a.754.754,0,0,1,.754-.754h1.108v-1.132a.754.754,0,0,1,.754-.754h12.627a.754.754,0,0,1,.754.754v1.132h1.1a.754.754,0,0,1,.754.754V295.04A.754.754,0,0,1,747.911,295.795Z" transform="translate(-255.014 -76.636)" fill="#d4dbde"/>
    <g id="Group_261" data-name="Group 261" transform="translate(297.897 131.471)">
      <path id="Path_303" data-name="Path 303" d="M508.429,283.622H496.018a.754.754,0,0,1-.754-.754V254.945a.754.754,0,0,1,.754-.754h12.411a.754.754,0,0,1,.754.754v27.922A.754.754,0,0,1,508.429,283.622Zm-11.656-1.509h10.9V255.7h-10.9Z" transform="translate(-467.093 -212.052)" fill="#d4dbde"/>
      <rect id="Rectangle_267" data-name="Rectangle 267" width="1.068" height="1.678" transform="translate(30.925 59.963)" fill="#d4dbde"/>
      <path id="Path_304" data-name="Path 304" d="M506.613,293.174h-1.832a.754.754,0,0,1-.754-.754V284.87a.755.755,0,0,1,.754-.754h1.832a.754.754,0,0,1,.754.754v7.549A.754.754,0,0,1,506.613,293.174Zm-1.077-1.509h.323v-6.041h-.323Z" transform="translate(-470.567 -223.917)" fill="#d4dbde"/>
      <rect id="Rectangle_268" data-name="Rectangle 268" width="1.142" height="1.676" transform="translate(38.271 59.888)" fill="#d4dbde"/>
      <path id="Path_305" data-name="Path 305" d="M449.341,274.758a.754.754,0,0,1-.3-1.445,45.155,45.155,0,0,0,10.877-6.977,68.8,68.8,0,0,0,8.339-8.5,82.2,82.2,0,0,0,5.321-7.174c.491-.745.96-1.486,1.4-2.2.1-.162.339-.565.422-.717a.756.756,0,0,1,.732-.572h0a.753.753,0,0,1,.754.753c0,.289-.059.387-.617,1.316-.446.734-.926,1.491-1.426,2.252a83.885,83.885,0,0,1-5.421,7.309,70.3,70.3,0,0,1-8.524,8.682,46.66,46.66,0,0,1-11.245,7.207A.754.754,0,0,1,449.341,274.758Z" transform="translate(-448.586 -209.271)" fill="#d4dbde"/>
      <path id="Path_306" data-name="Path 306" d="M449.369,269.178a.754.754,0,0,1-.265-1.461,51.289,51.289,0,0,0,10.494-5.51,77.306,77.306,0,0,0,15.886-14.477.754.754,0,0,1,1.2.916,78.722,78.722,0,0,1-16.243,14.813,52.777,52.777,0,0,1-10.805,5.671A.744.744,0,0,1,449.369,269.178Z" transform="translate(-448.597 -209.375)" fill="#d4dbde"/>
      <path id="Path_307" data-name="Path 307" d="M495.455,306.427h-24.17a.754.754,0,0,1-.754-.754V304.3H449.34a.754.754,0,0,1-.754-.754V301.2a.754.754,0,0,1,.754-.754h46.115a.755.755,0,0,1,.754.754v4.47A.754.754,0,0,1,495.455,306.427Zm-23.416-1.509H494.7v-2.961H450.095v.835h21.19a.754.754,0,0,1,.754.754Z" transform="translate(-448.586 -230.392)" fill="#d4dbde"/>
      <path id="Path_308" data-name="Path 308" d="M510.688,317.414a.754.754,0,0,1-.754-.754v-7.4H482.521v5.392a.754.754,0,0,1-1.509,0v-6.146a.754.754,0,0,1,.754-.754h28.922a.755.755,0,0,1,.754.754v8.151A.755.755,0,0,1,510.688,317.414Z" transform="translate(-461.442 -233.289)" fill="#d4dbde"/>
      <path id="Path_309" data-name="Path 309" d="M527.312,297.759a.758.758,0,0,1-.244-.04.751.751,0,0,1-.444-.4l-1.836-4.076a.755.755,0,0,1,.378-1l29.026-13.083a.755.755,0,0,1,1,.378l.977,2.169a.754.754,0,0,1-.334.976l-28.166,14.99A.756.756,0,0,1,527.312,297.759Zm-.839-4.452,1.2,2.653L554.5,281.681l-.377-.837Z" transform="translate(-478.772 -221.925)" fill="#d4dbde"/>
      <g id="Group_258" data-name="Group 258" transform="translate(78.835 57.168)">
        <path id="Path_310" data-name="Path 310" d="M608.132,297.759a.755.755,0,0,1-.354-.088l-28.166-14.99a.754.754,0,0,1-.334-.976l.977-2.169a.753.753,0,0,1,.421-.4.761.761,0,0,1,.577.017l29.025,13.083a.754.754,0,0,1,.378,1l-1.836,4.076a.754.754,0,0,1-.687.444Zm-27.189-16.078,26.832,14.279,1.2-2.653-27.65-12.463Z" transform="translate(-579.211 -279.093)" fill="#d4dbde"/>
      </g>
      <path id="Path_311" data-name="Path 311" d="M508.065,280.722H497.772a.754.754,0,0,1,0-1.509h10.292a.754.754,0,0,1,0,1.509Z" transform="translate(-467.788 -221.973)" fill="#d4dbde"/>
      <path id="Path_312" data-name="Path 312" d="M481.977,286.019a.754.754,0,0,1-.754-.754V261a.754.754,0,0,1,1.509,0v24.262A.754.754,0,0,1,481.977,286.019Z" transform="translate(-461.526 -214.453)" fill="#d4dbde"/>
      <path id="Path_313" data-name="Path 313" d="M472.318,289.052a.754.754,0,0,1-.754-.754V268.652a.754.754,0,0,1,1.509,0V288.3A.754.754,0,0,1,472.318,289.052Z" transform="translate(-457.696 -217.487)" fill="#d4dbde"/>
      <path id="Path_314" data-name="Path 314" d="M462.658,291.463a.754.754,0,0,1-.754-.754V274.733a.754.754,0,0,1,1.509,0v15.975A.754.754,0,0,1,462.658,291.463Z" transform="translate(-453.866 -219.898)" fill="#d4dbde"/>
      <path id="Path_315" data-name="Path 315" d="M453,293.538a.754.754,0,0,1-.754-.754V279.967a.754.754,0,0,1,1.509,0v12.816A.754.754,0,0,1,453,293.538Z" transform="translate(-450.037 -221.973)" fill="#d4dbde"/>
      <path id="Path_316" data-name="Path 316" d="M500.215,243.23a.754.754,0,0,1-.754-.754v-5.147a.754.754,0,1,1,1.509,0v5.147A.755.755,0,0,1,500.215,243.23Z" transform="translate(-468.757 -205.067)" fill="#d4dbde"/>
      <path id="Path_317" data-name="Path 317" d="M506.488,243.23a.755.755,0,0,1-.754-.754v-5.147a.754.754,0,0,1,1.509,0v5.147A.754.754,0,0,1,506.488,243.23Z" transform="translate(-471.244 -205.067)" fill="#d4dbde"/>
      <path id="Path_318" data-name="Path 318" d="M512.764,243.23a.754.754,0,0,1-.754-.754v-5.147a.754.754,0,0,1,1.509,0v5.147A.755.755,0,0,1,512.764,243.23Z" transform="translate(-473.732 -205.067)" fill="#d4dbde"/>
      <path id="Path_319" data-name="Path 319" d="M508.065,265.888H497.772a.754.754,0,0,1,0-1.509h10.292a.754.754,0,0,1,0,1.509Z" transform="translate(-467.788 -216.091)" fill="#d4dbde"/>
      <path id="Path_320" data-name="Path 320" d="M508.065,261.7H497.772a.754.754,0,1,1,0-1.509h10.292a.754.754,0,1,1,0,1.509Z" transform="translate(-467.788 -214.429)" fill="#d4dbde"/>
      <path id="Path_321" data-name="Path 321" d="M509.516,228.613H490.277a.754.754,0,0,1,0-1.509h19.238a.754.754,0,0,1,0,1.509Z" transform="translate(-464.817 -201.313)" fill="#d4dbde"/>
      <path id="Path_322" data-name="Path 322" d="M497.582,209.266a.755.755,0,0,1-.754-.754v-6.236a.754.754,0,0,1,1.509,0v6.236A.754.754,0,0,1,497.582,209.266Z" transform="translate(-467.713 -191.169)" fill="#d4dbde"/>
      <path id="Path_323" data-name="Path 323" d="M506.3,192.114a.754.754,0,0,1-.754-.754v-6.236a.754.754,0,1,1,1.509,0v6.236A.754.754,0,0,1,506.3,192.114Z" transform="translate(-471.169 -184.369)" fill="#d4dbde"/>
      <path id="Path_324" data-name="Path 324" d="M514.826,209.266a.755.755,0,0,1-.754-.754v-6.236a.754.754,0,1,1,1.509,0v6.236A.754.754,0,0,1,514.826,209.266Z" transform="translate(-474.55 -191.169)" fill="#d4dbde"/>
      <path id="Path_325" data-name="Path 325" d="M651.407,283.622H639a.755.755,0,0,1-.755-.754V254.945a.754.754,0,0,1,.755-.754h12.41a.754.754,0,0,1,.754.754v27.922A.755.755,0,0,1,651.407,283.622Zm-11.656-1.509h10.9V255.7h-10.9Z" transform="translate(-523.78 -212.052)" fill="#d4dbde"/>
      <g id="Group_259" data-name="Group 259" transform="translate(123.806 59.208)">
        <rect id="Rectangle_269" data-name="Rectangle 269" width="1.068" height="1.678" transform="translate(0.754 0.754)" fill="#d4dbde"/>
        <rect id="Rectangle_270" data-name="Rectangle 270" width="2.577" height="3.187" rx="1.25" fill="#d4dbde"/>
      </g>
      <path id="Path_326" data-name="Path 326" d="M649.593,293.174h-1.83a.754.754,0,0,1-.754-.754V284.87a.754.754,0,0,1,.754-.754h1.83a.755.755,0,0,1,.754.754v7.549A.754.754,0,0,1,649.593,293.174Zm-1.076-1.509h.322v-6.041h-.322Z" transform="translate(-527.256 -223.917)" fill="#d4dbde"/>
      <g id="Group_260" data-name="Group 260" transform="translate(116.385 59.133)">
        <rect id="Rectangle_271" data-name="Rectangle 271" width="1.142" height="1.676" transform="translate(0.754 0.754)" fill="#d4dbde"/>
        <rect id="Rectangle_272" data-name="Rectangle 272" width="2.651" height="3.185" rx="1.25" fill="#d4dbde"/>
      </g>
      <path id="Path_327" data-name="Path 327" d="M692.4,276.525a.744.744,0,0,1-.3-.065c-3.759-1.655-11.265-5.8-15.005-8.975a70.191,70.191,0,0,1-8.522-8.68,83.788,83.788,0,0,1-5.422-7.309c-.651-.989-1.135-1.77-1.425-2.251-.56-.929-.619-1.027-.619-1.316a.755.755,0,0,1,1.488-.179c.083.153.325.554.422.717.283.468.756,1.231,1.394,2.2a82.316,82.316,0,0,0,5.322,7.175,68.788,68.788,0,0,0,8.338,8.494c3.5,2.964,10.882,7.091,14.638,8.746a.755.755,0,0,1-.3,1.445Zm-30.542-28.6h0Z" transform="translate(-532.846 -209.27)" fill="#d4dbde"/>
      <path id="Path_328" data-name="Path 328" d="M692.439,270.854a.745.745,0,0,1-.266-.048,93.079,93.079,0,0,1-14.583-7.348,74.487,74.487,0,0,1-8.547-6.75,75.593,75.593,0,0,1-7.688-8.051.755.755,0,0,1,1.186-.934,73.964,73.964,0,0,0,7.518,7.869,73.1,73.1,0,0,0,8.373,6.613,91.23,91.23,0,0,0,14.272,7.187.754.754,0,0,1-.265,1.461Z" transform="translate(-532.88 -209.374)" fill="#d4dbde"/>
      <path id="Path_329" data-name="Path 329" d="M654,306.427H629.828a.754.754,0,0,1-.754-.754V301.2a.755.755,0,0,1,.754-.754H679.7a.755.755,0,0,1,.754.754v2.343a.755.755,0,0,1-.754.754H654.752v1.372A.754.754,0,0,1,654,306.427Zm-23.415-1.509h22.66v-1.372a.755.755,0,0,1,.754-.754H678.95v-.835H630.583Z" transform="translate(-520.146 -230.392)" fill="#d4dbde"/>
      <path id="Path_330" data-name="Path 330" d="M625.891,316.879a.754.754,0,0,1-.754-.754v-7.616a.754.754,0,0,1,.754-.754h28.922a.755.755,0,0,1,.754.754v6.146a.754.754,0,0,1-1.509,0v-5.392H626.646v6.861A.754.754,0,0,1,625.891,316.879Z" transform="translate(-518.585 -233.289)" fill="#d4dbde"/>
      <path id="Path_331" data-name="Path 331" d="M594.946,230H580.181a.754.754,0,0,1-.754-.754v-4.306H509.409v4.306a.754.754,0,0,1-.754.754H493.889a.755.755,0,0,1-.754-.754v-16.5a.754.754,0,0,1-.27-.578v-.459a.752.752,0,0,1,.415-.674l2.007-8.124a.755.755,0,0,1,.733-.573h0a.754.754,0,0,1,.732.575l.633,2.581,3.178-12.853a.755.755,0,0,1,.733-.574h0a.755.755,0,0,1,.732.575l3.147,12.838.634-2.569a.755.755,0,0,1,.733-.573h0a.755.755,0,0,1,.732.575l1.99,8.123a.754.754,0,0,1,.414.673v.459a.752.752,0,0,1-.27.578v5.826h13.12a.754.754,0,0,1,.7-.482h4.13a.754.754,0,0,1,.7.482h12.495V218.5a.755.755,0,0,1,.754-.754h.54a2.68,2.68,0,0,1,5.124,0h.54a.755.755,0,0,1,.754.754v.073h12.495a.755.755,0,0,1,.7-.482h4.13a.755.755,0,0,1,.7.482h13.121v-5.826a.751.751,0,0,1-.27-.578v-.459a.753.753,0,0,1,.413-.673l1.99-8.123a.755.755,0,0,1,.732-.575h0a.755.755,0,0,1,.733.573l.634,2.569,3.147-12.838a.755.755,0,0,1,.732-.575h0a.755.755,0,0,1,.733.574l3.178,12.853.633-2.581a.753.753,0,0,1,.731-.575h0a.753.753,0,0,1,.733.573l2.007,8.124a.753.753,0,0,1,.415.674v.459a.754.754,0,0,1-.27.578v16.5A.755.755,0,0,1,594.946,230ZM580.936,228.5h13.256V212.173a.75.75,0,0,1,.035-.228c0-.016-.01-.033-.014-.05l-1.394-5.641-.633,2.581a.755.755,0,0,1-.732.575h0a.754.754,0,0,1-.733-.573l-3.178-12.853L584.4,208.822a.753.753,0,0,1-.732.575h0a.753.753,0,0,1-.732-.573l-.634-2.568-1.382,5.639c0,.017-.009.034-.015.051a.748.748,0,0,1,.036.228v7.159a.754.754,0,0,1-.754.754H565.6a.753.753,0,0,1-.7-.482h-2.723a.754.754,0,0,1-.7.482H547.519a.754.754,0,0,1-.754-.754v-.073h-.421a.754.754,0,0,1-.754-.741,1.172,1.172,0,0,0-2.345,0,.755.755,0,0,1-.754.741h-.421v.073a.754.754,0,0,1-.754.754H527.362a.754.754,0,0,1-.7-.482h-2.722a.754.754,0,0,1-.7.482H508.654a.754.754,0,0,1-.754-.754v-7.159a.747.747,0,0,1,.036-.228c-.006-.017-.011-.034-.015-.051l-1.381-5.639-.634,2.568a.755.755,0,0,1-.733.573h0a.755.755,0,0,1-.732-.575l-3.147-12.839-3.178,12.853a.754.754,0,0,1-.732.573h0a.754.754,0,0,1-.732-.575l-.633-2.581-1.394,5.641c0,.017-.009.034-.014.05a.75.75,0,0,1,.035.228V228.5H507.9V224.19a.755.755,0,0,1,.754-.754h71.527a.755.755,0,0,1,.754.754Z" transform="translate(-466.142 -187.423)" fill="#d4dbde"/>
      <path id="Path_332" data-name="Path 332" d="M651.045,280.722H640.752a.754.754,0,0,1,0-1.509h10.293a.754.754,0,0,1,0,1.509Z" transform="translate(-524.477 -221.973)" fill="#d4dbde"/>
      <path id="Path_333" data-name="Path 333" d="M673.6,286.019a.754.754,0,0,1-.754-.754V261a.754.754,0,1,1,1.509,0v24.262A.754.754,0,0,1,673.6,286.019Z" transform="translate(-537.501 -214.453)" fill="#d4dbde"/>
      <path id="Path_334" data-name="Path 334" d="M683.26,289.052a.754.754,0,0,1-.754-.754V268.652a.754.754,0,1,1,1.509,0V288.3A.754.754,0,0,1,683.26,289.052Z" transform="translate(-541.33 -217.487)" fill="#d4dbde"/>
      <path id="Path_335" data-name="Path 335" d="M692.92,291.463a.754.754,0,0,1-.754-.754V274.733a.754.754,0,0,1,1.509,0v15.975A.754.754,0,0,1,692.92,291.463Z" transform="translate(-545.16 -219.898)" fill="#d4dbde"/>
      <path id="Path_336" data-name="Path 336" d="M702.578,293.538a.754.754,0,0,1-.754-.754V279.967a.754.754,0,1,1,1.509,0v12.816A.754.754,0,0,1,702.578,293.538Z" transform="translate(-548.99 -221.973)" fill="#d4dbde"/>
      <path id="Path_337" data-name="Path 337" d="M655.363,243.23a.755.755,0,0,1-.754-.754v-5.147a.754.754,0,0,1,1.509,0v5.147A.754.754,0,0,1,655.363,243.23Z" transform="translate(-530.27 -205.067)" fill="#d4dbde"/>
      <path id="Path_338" data-name="Path 338" d="M649.088,243.23a.755.755,0,0,1-.754-.754v-5.147a.754.754,0,0,1,1.509,0v5.147A.755.755,0,0,1,649.088,243.23Z" transform="translate(-527.782 -205.067)" fill="#d4dbde"/>
      <path id="Path_339" data-name="Path 339" d="M642.814,243.23a.755.755,0,0,1-.754-.754v-5.147a.754.754,0,1,1,1.509,0v5.147A.754.754,0,0,1,642.814,243.23Z" transform="translate(-525.294 -205.067)" fill="#d4dbde"/>
      <path id="Path_340" data-name="Path 340" d="M651.045,265.888H640.752a.754.754,0,0,1,0-1.509h10.293a.754.754,0,0,1,0,1.509Z" transform="translate(-524.477 -216.091)" fill="#d4dbde"/>
      <path id="Path_341" data-name="Path 341" d="M651.045,261.7H640.752a.754.754,0,1,1,0-1.509h10.293a.754.754,0,1,1,0,1.509Z" transform="translate(-524.477 -214.429)" fill="#d4dbde"/>
      <path id="Path_342" data-name="Path 342" d="M652.663,228.613H633.424a.754.754,0,0,1,0-1.509h19.238a.754.754,0,0,1,0,1.509Z" transform="translate(-521.571 -201.313)" fill="#d4dbde"/>
      <path id="Path_343" data-name="Path 343" d="M658,209.266a.755.755,0,0,1-.754-.754v-6.236a.754.754,0,0,1,1.509,0v6.236A.754.754,0,0,1,658,209.266Z" transform="translate(-531.314 -191.169)" fill="#d4dbde"/>
      <path id="Path_344" data-name="Path 344" d="M649.279,192.114a.754.754,0,0,1-.754-.754v-6.236a.754.754,0,1,1,1.509,0v6.236A.754.754,0,0,1,649.279,192.114Z" transform="translate(-527.858 -184.369)" fill="#d4dbde"/>
      <path id="Path_345" data-name="Path 345" d="M640.752,209.266a.755.755,0,0,1-.754-.754v-6.236a.754.754,0,0,1,1.509,0v6.236A.755.755,0,0,1,640.752,209.266Z" transform="translate(-524.477 -191.169)" fill="#d4dbde"/>
      <path id="Path_346" data-name="Path 346" d="M593.074,320.357a6.065,6.065,0,0,1-5.33-3.178,6.057,6.057,0,0,1-10.655.005,6.062,6.062,0,0,1-10.658,0,6.062,6.062,0,0,1-10.658,0,6.062,6.062,0,0,1-10.658,0,6.057,6.057,0,0,1-10.655,0,6.058,6.058,0,0,1-10.658,0,6.058,6.058,0,0,1-10.656,0,6.071,6.071,0,0,1-5.331,3.173.754.754,0,0,1,0-1.509,4.558,4.558,0,0,0,4.556-4.551.755.755,0,0,1,.754-.754.792.792,0,0,1,.8.754,4.551,4.551,0,0,0,9.1,0,.754.754,0,0,1,.754-.754.8.8,0,0,1,.8.754,4.551,4.551,0,0,0,9.1,0,.754.754,0,0,1,.754-.754.8.8,0,0,1,.8.754,4.551,4.551,0,0,0,9.1,0,.755.755,0,0,1,.754-.754.792.792,0,0,1,.8.754,4.554,4.554,0,0,0,9.107,0,.755.755,0,0,1,.754-.754.792.792,0,0,1,.8.754,4.554,4.554,0,0,0,9.107,0,.755.755,0,0,1,.754-.754.791.791,0,0,1,.8.754,4.554,4.554,0,0,0,9.108,0,.755.755,0,0,1,.754-.754.791.791,0,0,1,.8.754,4.551,4.551,0,1,0,9.1,0,.755.755,0,0,1,.754-.754.8.8,0,0,1,.8.754,4.556,4.556,0,0,0,4.551,4.551.754.754,0,0,1,0,1.509Z" transform="translate(-471.77 -235.584)" fill="#d4dbde"/>
    </g>
    <path id="Path_347" data-name="Path 347" d="M428.886,257.7a.754.754,0,0,1-.754-.754v-70.76a.754.754,0,0,1,.754-.754h.327V184.7H399.707v.736h.326a.755.755,0,0,1,.754.754v80.347a.754.754,0,1,1-1.509,0V186.941h-.326a.754.754,0,0,1-.754-.754v-2.244a.754.754,0,0,1,.754-.754h31.015a.754.754,0,0,1,.754.754v2.244a.754.754,0,0,1-.754.754h-.327v70.005A.754.754,0,0,1,428.886,257.7Z" transform="translate(-130.711 -52.43)" fill="#d4dbde"/>
    <path id="Path_348" data-name="Path 348" d="M429.951,97.69h0l-31,0a.754.754,0,0,1-.689-1.063l4.881-10.894a.746.746,0,0,1-.1-.374V84.313a.755.755,0,0,1,.517-.716V74.539a.755.755,0,0,1-.517-.716V72.781a.754.754,0,0,1,.754-.754h3.318l6.625-20.555a.755.755,0,0,1,.716-.523h0a.754.754,0,0,1,.717.52l6.749,20.558h3.19a.755.755,0,0,1,.754.754v1.042a.755.755,0,0,1-.533.721v9.049a.755.755,0,0,1,.533.721v1.042a.76.76,0,0,1-.107.389l4.874,10.882a.755.755,0,0,1-.689,1.063Zm-29.833-1.511,28.668,0-4.711-10.516a.753.753,0,0,1,.056-.719l.013-.019a.755.755,0,0,1-.313-.613V73.823a.749.749,0,0,1,.057-.287h-2.506a.754.754,0,0,1-.716-.519l-6.2-18.874-6.081,18.871a.755.755,0,0,1-.718.523h-2.652a.759.759,0,0,1,.056.287v10.49a.753.753,0,0,1-.314.613l.014.021a.756.756,0,0,1,.055.719Z" transform="translate(-130.712 0)" fill="#d4dbde"/>
    <path id="Path_349" data-name="Path 349" d="M430.138,162.358H397.669a.755.755,0,0,1-.754-.754v-34.11a.755.755,0,0,1,.754-.754h32.468a.755.755,0,0,1,.754.754V161.6A.755.755,0,0,1,430.138,162.358Zm-31.714-1.509h30.959v-32.6H398.424Z" transform="translate(-130.202 -30.049)" fill="#d4dbde"/>
    <path id="Path_350" data-name="Path 350" d="M419.437,159.188A8.563,8.563,0,1,1,428,150.623,8.574,8.574,0,0,1,419.437,159.188Zm0-15.618a7.055,7.055,0,1,0,7.055,7.053A7.062,7.062,0,0,0,419.437,143.57Z" transform="translate(-135.737 -36.124)" fill="#d4dbde"/>
    <g id="Group_262" data-name="Group 262" transform="translate(281.714 112.514)">
      <path id="Path_351" data-name="Path 351" d="M423.021,155.439a1.232,1.232,0,1,1,1.231,1.234A1.231,1.231,0,0,1,423.021,155.439Z" transform="translate(-422.267 -153.454)" fill="#d4dbde"/>
      <path id="Path_352" data-name="Path 352" d="M423.756,156.932a1.987,1.987,0,1,1,1.989-1.989A1.989,1.989,0,0,1,423.756,156.932Zm0-2.465a.478.478,0,1,0,.48.476A.477.477,0,0,0,423.756,154.467Z" transform="translate(-421.771 -152.958)" fill="#d4dbde"/>
    </g>
    <g id="Group_263" data-name="Group 263" transform="translate(272.186 102.983)">
      <path id="Path_353" data-name="Path 353" d="M417.5,160.2a11.516,11.516,0,1,1,11.518-11.516A11.528,11.528,0,0,1,417.5,160.2Zm0-21.523a10.007,10.007,0,1,0,10.009,10.007A10.017,10.017,0,0,0,417.5,138.676Z" transform="translate(-405.984 -137.167)" fill="#d4dbde"/>
    </g>
    <path id="Path_354" data-name="Path 354" d="M422,153.6a.751.751,0,0,1-.533-.221l-3.9-3.9a.755.755,0,0,1,1.067-1.067L422,151.777l3.9-3.9a.755.755,0,0,1,1.067,1.067l-4.431,4.431A.751.751,0,0,1,422,153.6Z" transform="translate(-138.304 -38.343)" fill="#d4dbde"/>
    <path id="Path_355" data-name="Path 355" d="M424.57,172.4a.754.754,0,0,1-.754-.754v-2.951a.754.754,0,1,1,1.509,0v2.951A.754.754,0,0,1,424.57,172.4Z" transform="translate(-140.868 -46.384)" fill="#d4dbde"/>
    <path id="Path_356" data-name="Path 356" d="M424.57,141.628a.755.755,0,0,1-.754-.754v-2.952a.754.754,0,0,1,1.509,0v2.952A.754.754,0,0,1,424.57,141.628Z" transform="translate(-140.868 -34.184)" fill="#d4dbde"/>
    <path id="Path_357" data-name="Path 357" d="M424.57,172.4a.754.754,0,0,1-.754-.754v-2.951a.754.754,0,1,1,1.509,0v2.951A.754.754,0,0,1,424.57,172.4Z" transform="translate(-140.868 -46.384)" fill="#d4dbde"/>
    <path id="Path_358" data-name="Path 358" d="M424.57,141.628a.755.755,0,0,1-.754-.754v-2.952a.754.754,0,0,1,1.509,0v2.952A.754.754,0,0,1,424.57,141.628Z" transform="translate(-140.868 -34.184)" fill="#d4dbde"/>
    <path id="Path_359" data-name="Path 359" d="M409.693,156.506h-2.951a.754.754,0,0,1,0-1.509h2.951a.754.754,0,0,1,0,1.509Z" transform="translate(-133.799 -41.253)" fill="#d4dbde"/>
    <path id="Path_360" data-name="Path 360" d="M440.462,156.506H437.51a.754.754,0,0,1,0-1.509h2.951a.754.754,0,0,1,0,1.509Z" transform="translate(-145.998 -41.253)" fill="#d4dbde"/>
    <path id="Path_361" data-name="Path 361" d="M414.05,145.986a.749.749,0,0,1-.533-.221l-2.086-2.087a.754.754,0,1,1,1.066-1.066l2.086,2.087a.755.755,0,0,1-.534,1.288Z" transform="translate(-135.87 -36.254)" fill="#d4dbde"/>
    <path id="Path_362" data-name="Path 362" d="M435.808,167.742a.751.751,0,0,1-.534-.221l-2.086-2.088a.754.754,0,1,1,1.067-1.066l2.086,2.088a.754.754,0,0,1-.534,1.287Z" transform="translate(-144.496 -44.88)" fill="#d4dbde"/>
    <path id="Path_363" data-name="Path 363" d="M433.721,145.985a.755.755,0,0,1-.534-1.288l2.086-2.086a.754.754,0,0,1,1.067,1.066l-2.086,2.086A.751.751,0,0,1,433.721,145.985Z" transform="translate(-144.496 -36.254)" fill="#d4dbde"/>
    <path id="Path_364" data-name="Path 364" d="M411.964,167.742a.754.754,0,0,1-.533-1.287l2.088-2.086a.754.754,0,1,1,1.066,1.066l-2.088,2.086A.749.749,0,0,1,411.964,167.742Z" transform="translate(-135.87 -44.881)" fill="#d4dbde"/>
    <path id="Path_365" data-name="Path 365" d="M429.221,161.233H402.092a.754.754,0,0,1-.754-.754V132.926a.754.754,0,0,1,.754-.754h27.129a.754.754,0,0,1,.754.754v27.552A.754.754,0,0,1,429.221,161.233Zm-26.374-1.509h25.62V133.681h-25.62Z" transform="translate(-131.956 -32.203)" fill="#d4dbde"/>
    <path id="Path_366" data-name="Path 366" d="M409.132,211.816a.754.754,0,0,1-.754-.754V193.007a.754.754,0,1,1,1.509,0v18.054A.754.754,0,0,1,409.132,211.816Z" transform="translate(-134.747 -56.024)" fill="#d4dbde"/>
    <path id="Path_367" data-name="Path 367" d="M417.251,211.816a.754.754,0,0,1-.754-.754V193.007a.754.754,0,1,1,1.509,0v18.054A.754.754,0,0,1,417.251,211.816Z" transform="translate(-137.966 -56.024)" fill="#d4dbde"/>
    <path id="Path_368" data-name="Path 368" d="M425.367,211.816a.754.754,0,0,1-.754-.754V193.007a.754.754,0,1,1,1.509,0v18.054A.754.754,0,0,1,425.367,211.816Z" transform="translate(-141.184 -56.024)" fill="#d4dbde"/>
    <path id="Path_369" data-name="Path 369" d="M433.484,211.816a.754.754,0,0,1-.754-.754V193.007a.754.754,0,1,1,1.509,0v18.054A.754.754,0,0,1,433.484,211.816Z" transform="translate(-144.402 -56.024)" fill="#d4dbde"/>
    <path id="Path_370" data-name="Path 370" d="M441.6,211.816a.754.754,0,0,1-.754-.754V193.007a.754.754,0,0,1,1.509,0v18.054A.754.754,0,0,1,441.6,211.816Z" transform="translate(-147.621 -56.024)" fill="#d4dbde"/>
    <path id="Path_371" data-name="Path 371" d="M409.132,253.622a.755.755,0,0,1-.754-.754V234.813a.754.754,0,1,1,1.509,0v18.054A.754.754,0,0,1,409.132,253.622Z" transform="translate(-134.747 -72.599)" fill="#d4dbde"/>
    <path id="Path_372" data-name="Path 372" d="M417.251,253.622a.754.754,0,0,1-.754-.754V234.813a.754.754,0,1,1,1.509,0v18.054A.755.755,0,0,1,417.251,253.622Z" transform="translate(-137.966 -72.599)" fill="#d4dbde"/>
    <path id="Path_373" data-name="Path 373" d="M425.367,253.622a.755.755,0,0,1-.754-.754V234.813a.754.754,0,1,1,1.509,0v18.054A.754.754,0,0,1,425.367,253.622Z" transform="translate(-141.184 -72.599)" fill="#d4dbde"/>
    <path id="Path_374" data-name="Path 374" d="M433.484,253.622a.755.755,0,0,1-.754-.754V234.813a.754.754,0,1,1,1.509,0v18.054A.754.754,0,0,1,433.484,253.622Z" transform="translate(-144.402 -72.599)" fill="#d4dbde"/>
    <path id="Path_375" data-name="Path 375" d="M441.6,253.622a.754.754,0,0,1-.754-.754V234.813a.754.754,0,0,1,1.509,0v18.054A.755.755,0,0,1,441.6,253.622Z" transform="translate(-147.621 -72.599)" fill="#d4dbde"/>
    <path id="Path_376" data-name="Path 376" d="M409.132,295.427a.754.754,0,0,1-.754-.754V276.618a.754.754,0,1,1,1.509,0v18.054A.754.754,0,0,1,409.132,295.427Z" transform="translate(-134.747 -89.174)" fill="#d4dbde"/>
    <path id="Path_377" data-name="Path 377" d="M417.251,295.427a.754.754,0,0,1-.754-.754V276.618a.754.754,0,1,1,1.509,0v18.054A.754.754,0,0,1,417.251,295.427Z" transform="translate(-137.966 -89.174)" fill="#d4dbde"/>
    <path id="Path_378" data-name="Path 378" d="M425.367,295.427a.754.754,0,0,1-.754-.754V276.618a.754.754,0,0,1,1.509,0v18.054A.754.754,0,0,1,425.367,295.427Z" transform="translate(-141.184 -89.174)" fill="#d4dbde"/>
    <path id="Path_379" data-name="Path 379" d="M433.484,295.427a.754.754,0,0,1-.754-.754V276.618a.754.754,0,1,1,1.509,0v18.054A.754.754,0,0,1,433.484,295.427Z" transform="translate(-144.402 -89.174)" fill="#d4dbde"/>
    <path id="Path_380" data-name="Path 380" d="M441.6,295.427a.754.754,0,0,1-.754-.754V276.618a.754.754,0,0,1,1.509,0v18.054A.754.754,0,0,1,441.6,295.427Z" transform="translate(-147.621 -89.174)" fill="#d4dbde"/>
    <path id="Path_381" data-name="Path 381" d="M273.852,281.774h-19.57a.754.754,0,0,1-.754-.754v-7.327H241.947a.754.754,0,0,1-.754-.754V246.682h-1.967a.754.754,0,0,1-.754-.754v-1.378H228.83v1.378a.755.755,0,0,1-.754.754h-1.966v26.256a.754.754,0,0,1-.754.754h-1.538a.754.754,0,0,1-.754-.754V258.556h-1.133a.755.755,0,0,1-.754-.754v-1.16H209.868v1.16a.755.755,0,0,1-.754.754h-1.132v8.55a.754.754,0,0,1-.754.754h-6.085a.754.754,0,0,1-.754-.754V248.7H185.306v15.871a.754.754,0,0,1-.754.754h-13.8a.754.754,0,0,1-.754-.754v-2.7h-7.049a.755.755,0,0,1-.754-.754v-7.772h-1.133a.755.755,0,0,1-.754-.754v-1.161H149v1.161a.755.755,0,0,1-.754.754H147.11v4.8a.755.755,0,0,1-.754.754H143.2a.755.755,0,0,1-.754-.754V247.323h-1.134a.754.754,0,0,1-.754-.754V243.9h-11.3v2.673a.754.754,0,0,1-.754.754H127.36v14.421a.755.755,0,0,1-.754.754h-2.547a.755.755,0,0,1-.754-.754V223.122h-1.133a.754.754,0,0,1-.754-.754v-1.135H110.112v1.135a.754.754,0,0,1-.754.754h-1.134v43.408a.754.754,0,0,1-.754.754h-2.228a.754.754,0,0,1-.754-.754V235.07H89.4v35.386a.754.754,0,0,1-.754.754H85.862a.754.754,0,0,1-.754-.754v-15.24H83.975a.754.754,0,0,1-.754-.754V253.3H71.914v1.161a.754.754,0,0,1-.754.754H70.028v30.857a.754.754,0,0,1-1.509,0V254.463a.755.755,0,0,1,.754-.754H70.4v-1.161a.755.755,0,0,1,.754-.754H83.975a.754.754,0,0,1,.754.754v1.161h1.133a.754.754,0,0,1,.754.754V269.7H87.9V234.316a.755.755,0,0,1,.754-.754h16.591a.755.755,0,0,1,.754.754v31.459h.719V222.367a.755.755,0,0,1,.754-.754H108.6v-1.135a.754.754,0,0,1,.754-.754h12.814a.754.754,0,0,1,.754.754v1.135h1.133a.754.754,0,0,1,.754.754V260.99h1.039V246.569a.755.755,0,0,1,.754-.754h1.135v-2.673a.755.755,0,0,1,.754-.754h12.813a.754.754,0,0,1,.754.754v2.673H143.2a.754.754,0,0,1,.754.754V257.39h1.65v-4.8a.754.754,0,0,1,.754-.754h1.132v-1.161a.754.754,0,0,1,.754-.754h12.815a.754.754,0,0,1,.754.754v1.161h1.133a.754.754,0,0,1,.754.754v7.772h7.049a.754.754,0,0,1,.754.754v2.7H183.8V247.942a.754.754,0,0,1,.754-.754h16.591a.755.755,0,0,1,.754.754v18.41h4.576V257.8a.754.754,0,0,1,.754-.754h1.132v-1.16a.754.754,0,0,1,.754-.754h12.815a.754.754,0,0,1,.754.754v1.16h1.133a.754.754,0,0,1,.754.754v14.383h.03V245.928a.754.754,0,0,1,.754-.754h1.966v-1.378a.755.755,0,0,1,.754-.754h11.15a.755.755,0,0,1,.754.754v1.378h1.967a.754.754,0,0,1,.754.754v26.256h11.582a.755.755,0,0,1,.754.754v7.327h18.815a.754.754,0,1,1,0,1.509Z" transform="translate(0 -66.916)" fill="#d4dbde"/>
    <rect id="Rectangle_364" data-name="Rectangle 364" width="423" height="10" transform="translate(69.519 215.949)" fill="#fff"/>
  </g>
</svg>
