<svg xmlns="http://www.w3.org/2000/svg" width="19.52" height="19.52" viewBox="0 0 19.52 19.52">
  <path id="Icon_metro-instagram" data-name="Icon metro-instagram" d="M18.85,1.928H5.811A3.25,3.25,0,0,0,2.571,5.169V18.207a3.25,3.25,0,0,0,3.241,3.241H18.85a3.25,3.25,0,0,0,3.241-3.241V5.169A3.25,3.25,0,0,0,18.85,1.928ZM8.819,10.468h7.023a3.717,3.717,0,1,1-7.023,0Zm10.831,0v7.319a1.224,1.224,0,0,1-1.22,1.22H6.231a1.224,1.224,0,0,1-1.22-1.22v-7.32H6.919a5.547,5.547,0,1,0,10.823,0h1.908Zm0-4.271a.612.612,0,0,1-.61.61h-1.22a.612.612,0,0,1-.61-.61V4.978a.612.612,0,0,1,.61-.61h1.22a.612.612,0,0,1,.61.61Z" transform="translate(-2.571 -1.928)" fill="#1c3f95"/>
</svg>
