<svg xmlns="http://www.w3.org/2000/svg" width="19.5" height="19.5" viewBox="0 0 19.5 19.5">
  <path id="Icon_awesome-linkedin" data-name="Icon awesome-linkedin" d="M18.107,2.25H1.388A1.4,1.4,0,0,0,0,3.656V20.344A1.4,1.4,0,0,0,1.388,21.75H18.107A1.4,1.4,0,0,0,19.5,20.344V3.656A1.4,1.4,0,0,0,18.107,2.25ZM5.893,18.964H3V9.658H5.9v9.306ZM4.448,8.387A1.676,1.676,0,1,1,6.124,6.711,1.676,1.676,0,0,1,4.448,8.387ZM16.727,18.964h-2.89V14.437c0-1.079-.022-2.468-1.5-2.468-1.506,0-1.737,1.175-1.737,2.39v4.605H7.708V9.658h2.773v1.271h.039a3.044,3.044,0,0,1,2.738-1.5c2.925,0,3.469,1.928,3.469,4.435Z" transform="translate(0 -2.25)" fill="#1c3f95"/>
</svg>
