<svg xmlns="http://www.w3.org/2000/svg" width="19.524" height="19.524" viewBox="0 0 19.524 19.524">
  <path id="Icon_awesome-twitter-square" data-name="Icon awesome-twitter-square" d="M17.432,2.25H2.092A2.092,2.092,0,0,0,0,4.342v15.34a2.092,2.092,0,0,0,2.092,2.092h15.34a2.092,2.092,0,0,0,2.092-2.092V4.342A2.092,2.092,0,0,0,17.432,2.25ZM15.3,9.17c.009.122.009.248.009.37a8.077,8.077,0,0,1-8.132,8.132,8.1,8.1,0,0,1-4.388-1.281,6.021,6.021,0,0,0,.689.035,5.731,5.731,0,0,0,3.547-1.22,2.862,2.862,0,0,1-2.671-1.983,3.08,3.08,0,0,0,1.29-.052,2.858,2.858,0,0,1-2.288-2.807V10.33a2.856,2.856,0,0,0,1.29.362A2.852,2.852,0,0,1,3.373,8.312a2.822,2.822,0,0,1,.388-1.442,8.116,8.116,0,0,0,5.892,2.99,2.864,2.864,0,0,1,4.877-2.61,5.6,5.6,0,0,0,1.813-.689,2.851,2.851,0,0,1-1.255,1.573,5.688,5.688,0,0,0,1.647-.445A6.016,6.016,0,0,1,15.3,9.17Z" transform="translate(0 -2.25)" fill="#1c3f95"/>
</svg>
